<svg xmlns="http://www.w3.org/2000/svg" width="159" height="55.415" viewBox="0 0 159 55.415"><defs><style>.a{fill:#060f2d;}</style></defs><g transform="translate(-36 -5371.893)"><g transform="translate(42.171 5371.893)"><path class="a" d="M498.02,400.134V376.687h3.886l8.485,11.3c1.457,1.943,2.817,3.789,4.178,5.667l.065-.033c-.065-2.2-.065-4.6-.065-7.092v-9.845h3.983v23.447h-3.886l-8.485-11.3c-1.458-1.943-2.818-3.789-4.178-5.668l-.065.032c.065,2.2.065,4.6.065,7.093v9.845Z" transform="translate(-498.02 -376.33)"/><path class="a" d="M550.18,387.995a12.08,12.08,0,1,1,12.08,12.08A11.839,11.839,0,0,1,550.18,387.995Zm20.046,0a7.974,7.974,0,1,0-7.966,8.323A8,8,0,0,0,570.226,387.995Z" transform="translate(-526.09 -375.915)"/><path class="a" d="M602.618,376.687h4.4l4.34,11.5c.81,2.169,1.587,4.339,2.364,6.574h.065c.745-2.137,1.587-4.372,2.43-6.606l4.34-11.465h4.21L615.8,400.134h-4.21Z" transform="translate(-554.31 -376.33)"/><path class="a" d="M668.484,400.134h-4.4l-4.339-11.5c-.81-2.169-1.587-4.339-2.364-6.574h-.065c-.745,2.137-1.587,4.372-2.43,6.606l-4.34,11.465h-4.21l8.972-23.447h4.21Z" transform="translate(-577.835 -376.33)"/></g><g transform="translate(41.797 5403.148)"><path class="a" d="M803.12,467.808h-4.4l-4.34-11.5c-.81-2.169-1.587-4.339-2.364-6.574h-.065c-.745,2.137-1.587,4.372-2.43,6.606l-4.34,11.464h-4.21l8.972-23.447h4.21Z" transform="translate(-649.917 -444.004)"/><path class="a" d="M497.762,461.66a13.6,13.6,0,0,0,7.287,2.428c2.332,0,4.016-1,4.016-3.174,0-2.59-2.461-2.947-5.505-3.854-3.271-1-6.348-2.494-6.348-6.672,0-4.242,3.174-6.8,7.9-6.8a14.485,14.485,0,0,1,6.963,1.716v4.145a13.675,13.675,0,0,0-7-2.2c-2.2,0-3.756.875-3.756,2.85,0,2.494,2.461,2.818,5.279,3.692,3.465,1.069,6.574,2.591,6.574,6.9,0,4.4-3.3,7.061-8.161,7.061a16.1,16.1,0,0,1-7.255-1.782Z" transform="translate(-497.212 -443.589)"/><path class="a" d="M539.347,444.361h6.833a13.87,13.87,0,0,1,6.575,1.166,6.22,6.22,0,0,1,3.368,5.7,6.408,6.408,0,0,1-5.214,6.445l7.061,10.137h-4.827l-6.542-9.683H543.46v9.683h-4.113Zm7.384,10.59a6.731,6.731,0,0,0,4.08-.939,3.228,3.228,0,0,0-.486-5.344,9.331,9.331,0,0,0-4.372-.648H543.46v6.93Z" transform="translate(-519.887 -444.004)"/><path class="a" d="M582.322,455.668a12.079,12.079,0,1,1,12.079,12.08A11.839,11.839,0,0,1,582.322,455.668Zm20.045,0a7.974,7.974,0,1,0-7.966,8.323A8,8,0,0,0,602.367,455.668Z" transform="translate(-543.015 -443.589)"/><path class="a" d="M642.4,444.361h6.509c3.628,0,6.672.583,9.068,2.137a10.986,10.986,0,0,1,4.859,9.521,11.19,11.19,0,0,1-4.275,9.166c-2.43,1.846-5.668,2.623-10.169,2.623H642.4Zm6.348,19.788c3.077,0,5.279-.453,6.963-1.684a8.278,8.278,0,0,0-.226-12.954c-1.847-1.264-4.21-1.49-6.768-1.49h-2.2v16.128Z" transform="translate(-575.348 -444.004)"/><path class="a" d="M713.344,456.408c0,3.466-.357,6.056-1.684,8.031-1.621,2.4-4.568,3.725-8.194,3.725-3.756,0-6.607-1.425-8.161-3.789-1.295-1.943-1.652-4.533-1.652-7.707V444.361h4.114v12.047c0,2.753.226,4.34.906,5.538.778,1.36,2.235,2.461,4.955,2.461,2.462,0,3.951-.907,4.794-2.364.744-1.263.939-3.013.939-5.571V444.361h3.984Z" transform="translate(-602.928 -444.004)"/><path class="a" d="M746.093,444.361h4.114v19.788h10.654v3.659H746.093Z" transform="translate(-631.149 -444.004)"/></g><rect class="a" width="2.057" height="7.308" transform="translate(53.421 5398.572) rotate(90)"/><rect class="a" width="2.057" height="54.702" transform="translate(38.057 5426.951) rotate(180)"/></g></svg>